<?xml version="1.0" encoding="utf-8"?>
<!-- Generator: Adobe Illustrator 21.0.0, SVG Export Plug-In . SVG Version: 6.00 Build 0)  -->
<svg version="1.1" id="图层_1" xmlns="http://www.w3.org/2000/svg" xmlns:xlink="http://www.w3.org/1999/xlink" x="0px" y="0px"
	 viewBox="0 0 1024 1024" style="enable-background:new 0 0 1024 1024;" xml:space="preserve">
<path d="M625.7,511.7l59.5-54.3c9.2-8.4,7.3-18,7.3-18c0-10.3-7.1-15.5-7.1-15.5c-7.8-7.1-17.4-7.2-17.4-7.2
	c-12.5,0-19.8,7.2-19.8,7.2L588.8,478l-59.5-54.2c0,0-7.3-7.2-19.8-7.2c0,0-9.6,0.1-17.4,7.2c0,0-7.1,5.2-7.1,15.5
	c0,0-1.9,9.6,7.3,18l59.5,54.3L493,565.2c-8.2,6.1-8.2,18.1-8.2,18.1c0,9.4,8,16.9,8,16.9c7.2,6.5,17.3,6,17.3,6
	c13.2,0,19.2-6.6,19.2-6.6l59.4-54.2l59.4,54.2c0,0,6.1,6.6,19.2,6.6c0,0,10.1,0.6,17.3-6c0,0,8-7.6,8-16.9c0,0,0-12-8.2-18.1
	L625.7,511.7L625.7,511.7z"/>
<path d="M924.8,677.6V347.3c-3.5-93-102.3-95.3-102.3-95.3H358.3c-13,0-20.4,6.7-20.4,6.7L104.2,494.3c-7.7,7.2-7.3,16.5-7.3,16.5
	c0,12.6,8,19.7,8,19.7l231,233.5c8.9,8.1,19.3,7.2,19.3,7.2h467.3C927.3,766.1,924.8,677.6,924.8,677.6L924.8,677.6z M855.1,668.9
	c0,0-1.4,44.1-48.1,44.1H373.4L174.6,511.4L374.1,311l1.1-1.2H807c0,0,48.1,4.5,48.1,46.3L855.1,668.9L855.1,668.9L855.1,668.9z"/>
</svg>
