<?xml version="1.0" encoding="utf-8"?>
<!-- Generator: Adobe Illustrator 21.0.0, SVG Export Plug-In . SVG Version: 6.00 Build 0)  -->
<svg version="1.1" id="图层_1" xmlns="http://www.w3.org/2000/svg" xmlns:xlink="http://www.w3.org/1999/xlink" x="0px" y="0px"
	 viewBox="0 0 1024 1024" style="enable-background:new 0 0 1024 1024;" xml:space="preserve">
<path d="M806.5,928.2H214c-13.7,0-24.6-10.9-24.6-24.6V449.3c0-13.7,10.9-24.6,24.6-24.6h592.5c13.7,0,24.6,10.9,24.6,24.6v454.3
	C831.6,917.3,820.2,928.2,806.5,928.2L806.5,928.2z M239.1,879h543.3V473.9H239.1V879L239.1,879z"/>
<path d="M510.2,778.2c-13.7,0-24.6-10.9-24.6-24.6V636.2c0-13.7,10.9-24.6,24.6-24.6s24.6,10.9,24.6,24.6v117.4
	C535.3,767.3,524,778.2,510.2,778.2z"/>
<path d="M566.1,636.2c0,30.8-25.1,55.4-55.4,55.4c-30.8,0-55.4-24.6-55.4-55.4c0-30.8,24.6-55.4,55.4-55.4
	C541,580.9,566.1,606,566.1,636.2z M675.4,268.1c13.7-1.9,20.8-17,17-30.3l-5.2-18l-55.4,1.4C639.9,233.1,651.3,271.4,675.4,268.1z"
	/>
<path d="M631.9,221.2h55.8c-12.3-27.4-30.8-52.1-54.4-71.5c-40.7-33.6-91.8-49.2-144.3-44c-52.5,5.2-99.4,30.3-133,71
	s-49.2,91.8-44,144.3l10.9,109.3c1.4,12.8,11.8,22.2,24.6,22.2h2.4c13.7-1.4,23.7-13.3,22.2-27l-10.9-109.3
	c-3.8-39.3,8-77.6,33.1-107.9c25.1-30.3,60.6-49.2,99.8-53c39.3-3.8,77.6,8,107.9,33.1C613.9,197.6,623.8,208.9,631.9,221.2z"/>
</svg>
