<?xml version="1.0" standalone="no"?><!DOCTYPE svg PUBLIC "-//W3C//DTD SVG 1.1//EN" "http://www.w3.org/Graphics/SVG/1.1/DTD/svg11.dtd"><svg class="icon" width="200px" height="200.00px" viewBox="0 0 1024 1024" version="1.1" xmlns="http://www.w3.org/2000/svg"><path fill="#333333" d="M879 612.8h74.9V420.2H879c-76 0-94.1-44.7-40.5-99.4l53.1-54-133.8-136.2-53 54c-53.7 54.7-97.7 36.2-97.5-41.1 0-0.2-0.1-0.3-0.1-0.5V67H418v76.6c-0.2 77.1-44 95.6-97.7 40.9l-53-54-133.7 136.3 53 54c53.7 54.6 35.5 99.4-40.4 99.4h-75v192.6h75c75.9 0 94.1 44.7 40.4 99.4l-53 54 133.7 136.2 53-54c53.6-54.6 97.4-36.2 97.7 40.9V966h189.1v-75.9c0-0.2 0.1-0.3 0.1-0.5-0.2-77.3 43.8-95.8 97.5-41.2l53 54 133.8-136.2-53.1-54c-53.5-54.7-35.4-99.4 40.6-99.4zM512.6 685c-91.4 0-165.5-75.5-165.5-168.5S421.2 348 512.6 348s165.5 75.5 165.5 168.5S603.9 685 512.6 685z" /></svg>